<svg width="30" height="30" viewBox="0 0 30 30" fill="none" xmlns="http://www.w3.org/2000/svg">
<g id="cpp.svg">
<path id="Vector" d="M7.8335 14.4495C7.8335 13.3167 8.0159 12.2991 8.3807 11.3967C8.7455 10.4943 9.2159 9.75511 9.7919 9.17911C10.3871 8.58391 11.1167 8.09431 11.9807 7.71031C12.6527 7.40311 13.5263 7.24951 14.6015 7.24951C15.5039 7.24951 16.3103 7.43191 17.0207 7.79671C17.7503 8.16151 18.3551 8.58391 18.8351 9.06391L16.8479 11.3103L16.6175 11.1375C16.2911 10.8879 16.0415 10.7343 15.8687 10.6767L15.5519 10.5903C15.1679 10.4751 14.8511 10.4175 14.6015 10.4175C14.1791 10.4175 13.7855 10.5039 13.4207 10.6767C13.0175 10.8879 12.6911 11.1663 12.4415 11.5119C12.1919 11.8383 11.9807 12.2607 11.8079 12.7791C11.6351 13.2975 11.5487 13.8543 11.5487 14.4495C11.5487 15.8319 11.8463 16.8207 12.4415 17.4159C12.7487 17.7999 13.0943 18.0783 13.4783 18.2511C13.8623 18.4239 14.2943 18.5103 14.7743 18.5103C15.2543 18.5103 15.6767 18.4239 16.0415 18.2511C16.4447 18.0399 16.7711 17.7615 17.0207 17.4159L19.0079 19.6911C18.4511 20.3247 17.7887 20.8335 17.0207 21.2175C16.3103 21.5631 15.5039 21.7359 14.6015 21.7359C13.7567 21.7359 12.8831 21.5919 11.9807 21.3039C11.1743 21.0351 10.4543 20.5839 9.8207 19.9503C9.5519 19.6623 9.2927 19.2879 9.0431 18.8271C8.9087 18.5583 8.7167 18.1263 8.4671 17.5311C8.0447 16.6863 7.8335 15.6591 7.8335 14.4495ZM16.7615 12.1167H15.4943V13.6431H14.0543V14.9103H15.4943V16.5231H16.7615V14.9103H18.2015V13.6431H16.7615V12.1167ZM22.1471 13.5567V11.7711H20.6207V13.5567H18.9215V15.0831H20.6207V16.9839H22.1471V15.0831H23.8751V13.5567H22.1471Z" fill="#519ABA"/>
</g>
</svg>
