<svg width="30" height="30" viewBox="0 0 30 30" fill="none" xmlns="http://www.w3.org/2000/svg">
<g id="csharp.svg">
<path id="Vector" d="M6.76782 15.1639C6.76782 14.0119 6.94062 12.9943 7.28622 12.1111C7.65102 11.2087 8.13102 10.4599 8.72622 9.86467C9.32142 9.26947 10.051 8.77987 10.915 8.39587C11.587 8.10787 12.451 7.96387 13.507 7.96387C14.4094 7.96387 15.2158 8.14627 15.9262 8.51107C16.6558 8.85667 17.2606 9.26947 17.7406 9.74947L15.7534 11.9959L15.523 11.8231C15.2158 11.5735 14.9662 11.4295 14.7742 11.3911L14.4862 11.3047C14.1022 11.1703 13.7758 11.1031 13.507 11.1031C13.0846 11.1031 12.7006 11.1991 12.355 11.3911C11.9326 11.5831 11.5966 11.8519 11.347 12.1975C11.0974 12.5239 10.8862 12.9559 10.7134 13.4935C10.5406 14.0119 10.4542 14.5687 10.4542 15.1639C10.4542 16.5463 10.7518 17.5351 11.347 18.1303C11.6734 18.4951 12.019 18.7735 12.3838 18.9655C12.7678 19.1383 13.1998 19.2247 13.6798 19.2247C14.1598 19.2247 14.5822 19.1287 14.947 18.9367C15.3502 18.7447 15.6862 18.4759 15.955 18.1303L17.9134 20.3767C17.3566 21.0103 16.7038 21.5191 15.955 21.9031C15.2254 22.2679 14.4094 22.4503 13.507 22.4503C12.6814 22.4503 11.8174 22.2967 10.915 21.9895C10.0894 21.7207 9.36942 21.2791 8.75502 20.6647C8.46702 20.3767 8.20782 20.0023 7.97742 19.5415C7.82382 19.2535 7.63182 18.8119 7.40142 18.2167C6.97902 17.4679 6.76782 16.4503 6.76782 15.1639ZM19.987 16.2295H19.0942L18.7486 18.3895H17.6542L18.0286 16.2295H16.9342V15.2503H18.2878L18.4606 13.8103H17.3086V12.8311H18.6334L19.0078 10.6711H20.0734L19.7278 12.8311H20.6206L20.995 10.6711H22.0606L21.715 12.8311H22.867V13.8103H21.427L21.2542 15.2503H22.435V16.2295H20.995L20.6206 18.3895H19.555C19.555 18.4279 19.6222 18.0823 19.7566 17.3527L19.987 16.2295ZM19.267 15.3367H20.1886L20.3614 13.8967H19.4686L19.267 15.3367Z" fill="#519ABA"/>
</g>
</svg>
