<svg width="30" height="30" viewBox="0 0 30 30" fill="none" xmlns="http://www.w3.org/2000/svg">
<path d="M14.7743 6.08984C13.2191 6.08984 11.7695 6.48344 10.4255 7.27064C9.11988 8.03864 8.08308 9.07544 7.31508 10.381C6.52788 11.725 6.13428 13.1747 6.13428 14.7299C6.13428 16.2851 6.52788 17.7347 7.31508 19.0787C8.08308 20.3843 9.11988 21.4211 10.4255 22.1891C11.7695 22.9763 13.2191 23.3699 14.7743 23.3699C16.3295 23.3699 17.7791 22.9763 19.1231 22.1891C20.4287 21.4211 21.4655 20.3843 22.2335 19.0787C23.0207 17.7347 23.4143 16.2851 23.4143 14.7299C23.4143 13.1747 23.0207 11.725 22.2335 10.381C21.4655 9.07544 20.4287 8.03864 19.1231 7.27064C17.7791 6.48344 16.3295 6.08984 14.7743 6.08984ZM17.8559 15.8819C17.9135 16.3427 17.8655 16.7939 17.7119 17.2355C17.5775 17.6771 17.3471 18.0707 17.0207 18.4163C16.6943 18.7427 16.3199 18.9923 15.8975 19.1651C15.4751 19.3187 15.0335 19.3763 14.5727 19.3379C14.0159 19.3763 13.4783 19.2899 12.9599 19.0787C12.4607 18.8483 12.0383 18.5219 11.6927 18.0995L12.7295 16.7747C12.9407 17.0435 13.1999 17.2547 13.5071 17.4083C13.8143 17.5619 14.1503 17.6387 14.5151 17.6387C14.9951 17.6387 15.3695 17.4851 15.6383 17.1779C15.9071 16.8515 16.0415 16.3715 16.0415 15.7379V10.1218H17.8559V15.8819Z" fill="#CC3E44"/>
</svg>
