<svg width="30" height="29" viewBox="0 0 30 29" fill="none" xmlns="http://www.w3.org/2000/svg">
<path d="M10.6271 9.14594H13.0751V16.0004C13.0751 17.4788 12.7295 18.554 12.0383 19.226C11.4047 19.8404 10.4543 20.1476 9.18709 20.1476C8.89909 20.1476 8.58229 20.1284 8.23669 20.09C7.89109 20.0324 7.61269 19.9556 7.40149 19.8596L7.66069 17.9012C8.02549 18.074 8.44789 18.1604 8.92789 18.1604C9.46549 18.1604 9.86869 18.0164 10.1375 17.7284C10.4639 17.3828 10.6271 16.8068 10.6271 16.0004V9.14594ZM15.2351 17.4404C15.5807 17.6324 15.9839 17.7956 16.4447 17.93C16.9631 18.0836 17.4527 18.1604 17.9135 18.1604C18.4895 18.1604 18.9215 18.0644 19.2095 17.8724C19.4975 17.6612 19.6415 17.3732 19.6415 17.0084C19.6415 16.6436 19.5071 16.3556 19.2383 16.1444C18.9695 15.914 18.4991 15.6836 17.8271 15.4532C15.8495 14.762 14.8607 13.6868 14.8607 12.2276C14.8607 11.2675 15.2255 10.4899 15.9551 9.89474C16.7039 9.28034 17.7215 8.97314 19.0079 8.97314C20.0255 8.97314 20.9567 9.15554 21.8015 9.52034L21.2543 11.5075L21.0815 11.4211C20.7359 11.2867 20.4575 11.1907 20.2463 11.1331C19.8431 11.0179 19.4303 10.9603 19.0079 10.9603C18.4895 10.9603 18.0863 11.0659 17.7983 11.2771C17.5295 11.4691 17.3951 11.7283 17.3951 12.0547C17.3951 12.3812 17.5487 12.65 17.8559 12.8612C18.0863 13.034 18.5855 13.274 19.3535 13.5812C20.3135 13.946 21.0143 14.3876 21.4559 14.906C21.9167 15.4244 22.1471 16.058 22.1471 16.8068C22.1471 17.7668 21.7823 18.5444 21.0527 19.1396C20.2655 19.8116 19.1615 20.1476 17.7407 20.1476C17.1839 20.1476 16.5983 20.0708 15.9839 19.9172C15.5039 19.8212 15.0719 19.6868 14.6879 19.514L15.2351 17.4404Z" fill="#CBCB41"/>
</svg>
