<svg width="30" height="30" viewBox="0 0 30 30" fill="none" xmlns="http://www.w3.org/2000/svg">
<g id="json.svg">
<path id="Vector" d="M7.11353 14.2737C7.72793 14.2737 8.15993 14.1297 8.40953 13.8417C8.58233 13.6305 8.66873 13.3233 8.66873 12.9201C8.66873 12.7473 8.64953 12.4978 8.61113 12.1714C8.57273 11.8258 8.55353 11.5666 8.55353 11.3938C8.55353 11.2018 8.54393 10.9234 8.52473 10.5586C8.48633 10.2322 8.46713 10.0018 8.46713 9.86736C8.46713 8.94576 8.73593 8.26416 9.27353 7.82256C9.81113 7.38096 10.5695 7.16016 11.5487 7.16016H12.2687V8.85936H11.8943C11.4719 8.85936 11.1647 8.98416 10.9727 9.23377C10.7999 9.46416 10.7135 9.81936 10.7135 10.2994C10.7135 10.4146 10.7327 10.5874 10.7711 10.8178C10.8095 11.1058 10.8287 11.3266 10.8287 11.4802C10.8287 11.5954 10.8383 11.7778 10.8575 12.0274C10.8959 12.373 10.9151 12.6418 10.9151 12.8337C10.9151 13.5633 10.7615 14.1105 10.4543 14.4753C10.1855 14.8017 9.76313 15.0321 9.18713 15.1665C9.76313 15.3201 10.1855 15.5505 10.4543 15.8577C10.7615 16.2417 10.9151 16.7889 10.9151 17.4993C10.9151 17.7105 10.8959 17.9889 10.8575 18.3345C10.8191 18.5841 10.7999 18.7665 10.7999 18.8817C10.8191 18.9969 10.8095 19.1985 10.7711 19.4865C10.7327 19.6977 10.7135 19.8513 10.7135 19.9473C10.7135 20.4273 10.7999 20.7921 10.9727 21.0417C11.1647 21.2721 11.4719 21.3873 11.8943 21.3873H12.2687V23.0865H11.5487C9.55193 23.0865 8.55353 22.1841 8.55353 20.3793C8.55353 19.7265 8.58233 19.2273 8.63993 18.8817C8.71673 18.5169 8.75513 17.9985 8.75513 17.3265C8.75513 16.4241 8.24633 15.9729 7.22873 15.9729L7.11353 14.2737ZM22.4351 15.8001C21.4175 15.8001 20.9087 16.2513 20.9087 17.1537C20.9087 17.3265 20.9183 17.5857 20.9375 17.9313C20.9759 18.2577 20.9951 18.5073 20.9951 18.6801C21.0527 19.0449 21.0815 19.5537 21.0815 20.2065C21.0815 22.0113 20.0639 22.9137 18.0287 22.9137H17.3087V21.3873H17.6543C18.0767 21.3873 18.3743 21.2721 18.5471 21.0417C18.7391 20.7921 18.8351 20.4273 18.8351 19.9473C18.8351 19.4673 18.8063 19.1025 18.7487 18.8529C18.7487 18.6993 18.7295 18.4785 18.6911 18.1905C18.6527 17.8833 18.6335 17.6529 18.6335 17.4993C18.6335 16.7889 18.7871 16.2417 19.0943 15.8577C19.3631 15.5505 19.7855 15.3201 20.3615 15.1665C19.7855 15.0321 19.3631 14.8017 19.0943 14.4753C18.7871 14.1105 18.6335 13.5633 18.6335 12.8337C18.6335 12.6418 18.6527 12.373 18.6911 12.0274C18.7295 11.7778 18.7487 11.5954 18.7487 11.4802C18.8063 11.173 18.8351 10.789 18.8351 10.3282C18.8351 9.86736 18.7391 9.52176 18.5471 9.29136C18.3551 9.06096 18.0575 8.91696 17.6543 8.85936H17.3087V7.16016H18.0287C18.9887 7.16016 19.7375 7.38096 20.2751 7.82256C20.8127 8.26416 21.0815 8.94576 21.0815 9.86736C21.0815 10.0402 21.0623 10.2994 21.0239 10.645C21.0047 10.9714 20.9951 11.221 20.9951 11.3938C20.9375 11.7586 20.8991 12.2674 20.8799 12.9201C20.8991 13.3233 20.9855 13.6305 21.1391 13.8417C21.3887 14.1297 21.8207 14.2737 22.4351 14.2737V15.8001Z" fill="#CBCB41"/>
</g>
</svg>
