<svg width="30" height="29" viewBox="0 0 30 29" fill="none" xmlns="http://www.w3.org/2000/svg">
<g id="php.svg">
<path id="Vector" d="M11.8079 17.7608C11.7119 17.1464 11.4143 16.7528 10.9151 16.58L10.2815 16.2056C9.9167 16.0904 9.6767 16.004 9.5615 15.9464C9.3887 15.8696 9.2063 15.9272 9.0143 16.1192C8.9375 16.292 8.9663 16.4456 9.1007 16.58C9.1583 16.6952 9.2831 16.8488 9.4751 17.0408C9.5903 17.2136 9.8015 17.4536 10.1087 17.7608L10.1663 17.8472C10.2623 17.9816 10.3199 18.0872 10.3391 18.164C10.3967 18.2792 10.4063 18.4136 10.3679 18.5672C10.2719 19.2584 10.0031 19.8248 9.5615 20.2664C9.5231 20.3048 9.4751 20.3336 9.4175 20.3528H9.3887C9.2543 20.3528 9.1007 20.324 8.9279 20.2664C8.7743 20.1896 8.6495 20.1032 8.5535 20.0072C8.4383 19.8728 8.3903 19.748 8.4095 19.6328C8.4287 19.4984 8.5151 19.3832 8.6687 19.2872C8.7071 19.2872 8.7455 19.268 8.7839 19.2296C8.8223 19.1912 8.8415 19.1432 8.8415 19.0856C9.0335 18.8936 9.0911 18.692 9.0143 18.4808C8.9759 18.4424 8.9375 18.3944 8.8991 18.3368C8.8799 18.2792 8.8607 18.2312 8.8415 18.1928C8.5919 17.9624 8.1695 17.6072 7.5743 17.1272C6.4607 16.2632 5.8655 15.1784 5.7887 13.8728C5.6927 12.4904 6.0191 11.1464 6.7679 9.84077C7.0943 9.28397 7.4879 8.89036 7.9487 8.65996C8.1791 8.54476 8.5343 8.41996 9.0143 8.28556C10.2239 7.95916 11.2703 7.87276 12.1535 8.02636C13.1711 8.23756 13.8047 8.74638 14.0543 9.55277C14.2463 10.244 14.3039 10.8488 14.2271 11.3672C14.1887 11.9816 13.9487 12.5384 13.5071 13.0376C13.0847 13.5368 12.5759 13.8728 11.9807 14.0456C11.7119 14.1416 11.5007 14.1704 11.3471 14.132C11.1935 14.0744 11.0495 13.9304 10.9151 13.7L10.7711 13.4984C10.5407 13.1528 10.3775 12.8936 10.2815 12.7208V12.6056C10.2815 12.5864 10.2623 12.5672 10.2239 12.548C10.2047 12.5096 10.1951 12.4712 10.1951 12.4328C10.2527 12.7976 10.3007 13.0664 10.3391 13.2392C10.4159 13.5272 10.5119 13.7672 10.6271 13.9592C10.7423 14.1128 10.8479 14.228 10.9439 14.3048C11.0591 14.3816 11.1935 14.42 11.3471 14.42C12.5183 14.516 13.4495 14.1224 14.1407 13.2392C14.8127 12.3176 15.0527 11.1848 14.8607 9.84077C14.8607 9.68717 14.8223 9.49516 14.7455 9.26478L14.6879 9.12078C14.6879 9.00556 14.6975 8.92877 14.7167 8.89037C14.7359 8.83277 14.7839 8.78476 14.8607 8.74638C14.9759 8.74638 15.0335 8.71756 15.0335 8.65996C16.0703 8.44876 17.0015 8.39118 17.8271 8.48717C19.0175 8.58317 20.0063 8.90957 20.7935 9.46637C22.1759 10.3304 23.1071 11.6168 23.5871 13.3256C23.6447 13.5176 23.6735 13.7576 23.6735 14.0456C23.6735 14.1416 23.6543 14.1992 23.6159 14.2184C23.5775 14.2184 23.5103 14.1992 23.4143 14.1608C23.3375 14.1032 23.2415 14.0168 23.1263 13.9016L23.0687 13.7864C23.0303 13.7672 22.9823 13.7096 22.9247 13.6136C22.8671 13.5176 22.8191 13.4504 22.7807 13.412C22.7423 13.3736 22.7039 13.3544 22.6655 13.3544C22.6271 13.3544 22.6079 13.3736 22.6079 13.412C22.6079 13.4504 22.5887 13.4984 22.5503 13.556C22.5311 13.6136 22.5215 13.6616 22.5215 13.7C22.2143 14.7368 21.7919 15.5144 21.2543 16.0328C21.2159 16.0904 21.1775 16.1576 21.1391 16.2344C21.1007 16.292 21.0815 16.3496 21.0815 16.4072L21.0527 16.7528C21.0335 17.0792 21.0431 17.3192 21.0815 17.4728L21.3407 19.7192C21.3791 19.9304 21.3599 20.0936 21.2831 20.2088C21.2255 20.324 21.0911 20.4296 20.8799 20.5256C20.5343 20.66 20.2367 20.7272 19.9871 20.7272H18.5471C18.5471 20.3624 18.5279 20.1032 18.4895 19.9496C18.4319 19.6808 18.3071 19.4888 18.1151 19.3736C18.2303 18.8936 18.3167 18.5 18.3743 18.1928C18.4511 17.8856 18.3935 17.588 18.2015 17.3C18.0479 17.0696 17.8079 17.012 17.4815 17.1272C16.8287 17.5304 16.0799 17.588 15.2351 17.3C15.0239 17.2424 14.8511 17.2328 14.7167 17.2712C14.6015 17.3096 14.5055 17.4056 14.4287 17.5592C14.2367 17.924 14.1407 18.2888 14.1407 18.6536C14.1407 19.0184 14.1983 19.4984 14.3135 20.0936C14.3135 20.2472 14.3039 20.3528 14.2847 20.4104C14.2655 20.4488 14.1887 20.4872 14.0543 20.5256C13.4783 20.6984 12.8831 20.7368 12.2687 20.6408H12.1535C12.1535 20.276 12.1343 20.0168 12.0959 19.8632C11.9999 19.5944 11.8175 19.4024 11.5487 19.2872C11.8367 18.98 11.9231 18.4712 11.8079 17.7608ZM8.1215 15.6872C8.2367 15.5528 8.2943 15.428 8.2943 15.3128C8.3327 15.1784 8.3039 15.0248 8.2079 14.852C8.1119 14.6792 7.9871 14.564 7.8335 14.5064C7.7567 14.468 7.6895 14.4584 7.6319 14.4776C7.5935 14.4968 7.5455 14.5352 7.4879 14.5928C7.3919 14.6888 7.2671 14.8328 7.1135 15.0248C6.9791 15.1976 6.8639 15.3224 6.7679 15.3992C6.7679 15.4376 6.7487 15.476 6.7103 15.5144C6.6911 15.5336 6.6815 15.5624 6.6815 15.6008C6.6239 15.6776 6.6143 15.7544 6.6527 15.8312C6.6911 15.908 6.7583 15.9464 6.8543 15.9464C7.0271 15.9464 7.1519 15.9752 7.2287 16.0328C7.5743 16.0328 7.8719 15.9176 8.1215 15.6872ZM8.1215 12.7208C8.1215 12.6248 8.0831 12.5384 8.0063 12.4616C7.9295 12.3848 7.8431 12.3464 7.7471 12.3464C7.6511 12.3464 7.5551 12.3944 7.4591 12.4904C7.3823 12.5672 7.3631 12.6728 7.4015 12.8072C7.4015 12.9032 7.4399 12.9896 7.5167 13.0664C7.6127 13.124 7.7183 13.1528 7.8335 13.1528C8.0255 12.98 8.1215 12.836 8.1215 12.7208Z" fill="#A074C4"/>
</g>
</svg>
