<svg width="30" height="29" viewBox="0 0 30 29" fill="none" xmlns="http://www.w3.org/2000/svg">
<path d="M14.4287 14.0991H12.6143C11.9807 14.0991 11.4719 14.2911 11.0879 14.6751C10.7231 15.0399 10.5407 15.5391 10.5407 16.1727V17.7855C10.5407 17.9775 10.4543 18.0735 10.2815 18.0735H9.47509C8.63029 18.0735 8.02549 17.7087 7.66069 16.9791C7.37269 16.3839 7.22869 15.8463 7.22869 15.3663C7.11349 14.1759 7.19989 13.1871 7.48789 12.3999C7.79509 11.4783 8.36149 10.9407 9.18709 10.7871H14.3999C14.5919 10.7871 14.6879 10.7583 14.6879 10.7007V10.2399L14.5727 10.1823C14.4959 10.1631 14.4479 10.1535 14.4287 10.1535H11.3471C11.2127 10.1535 11.1167 10.1247 11.0591 10.0671C11.0207 10.0095 11.0015 9.91354 11.0015 9.77914V8.62714C11.0015 7.95513 11.2703 7.53273 11.8079 7.35993C12.4031 7.11034 12.8543 6.95674 13.1615 6.89914C14.3135 6.70714 15.3887 6.73594 16.3871 6.98554C16.8863 7.10074 17.3087 7.28314 17.6543 7.53274C17.8655 7.74394 18.0095 7.93594 18.0863 8.10874C18.2015 8.31993 18.2399 8.55033 18.2015 8.79993V12.0255C18.2015 12.6591 18.0287 13.1487 17.6831 13.4943C17.3375 13.8399 16.8479 14.0127 16.2143 14.0127C15.7919 14.0703 15.1967 14.0991 14.4287 14.0991ZM11.8943 8.71354C11.8943 8.90554 11.9615 9.07834 12.0959 9.23193C12.2303 9.36634 12.3935 9.43354 12.5855 9.43354C12.7775 9.43354 12.9503 9.35674 13.1039 9.20314C13.2575 9.04954 13.3343 8.88634 13.3343 8.71354C13.3343 8.54074 13.2575 8.38714 13.1039 8.25274C12.9695 8.11834 12.8063 8.03194 12.6143 7.99354C12.4031 7.99354 12.2303 8.07034 12.0959 8.22394C11.9615 8.35833 11.8943 8.52154 11.8943 8.71354ZM15.1487 15.0207H16.9343C17.5679 15.0207 18.0671 14.8383 18.4319 14.4735C18.8159 14.0895 19.0079 13.5807 19.0079 12.9471V11.3055C19.0079 11.1327 19.0943 11.0463 19.2671 11.0463H20.0735C20.9183 11.0463 21.5231 11.4111 21.8879 12.1407C22.1951 12.7359 22.3487 13.2735 22.3487 13.7535C22.4447 14.9439 22.3487 15.9327 22.0607 16.7199C21.7535 17.6415 21.1871 18.1791 20.3615 18.3327H15.1487C14.9567 18.3327 14.8607 18.3615 14.8607 18.4191V18.8799L14.9759 18.9375C15.0527 18.9567 15.1103 18.9663 15.1487 18.9663H18.2015C18.3359 18.9663 18.4223 18.9951 18.4607 19.0527C18.5183 19.1103 18.5471 19.2063 18.5471 19.3407V20.4927C18.5471 21.1647 18.2783 21.5871 17.7407 21.7599C17.1455 21.9903 16.6943 22.1439 16.3871 22.2207C15.2351 22.4127 14.1599 22.3743 13.1615 22.1055C12.6623 22.0095 12.2399 21.8367 11.8943 21.5871C11.6831 21.3759 11.5391 21.1839 11.4623 21.0111C11.3471 20.7999 11.3087 20.5695 11.3471 20.3199V17.0655C11.3471 16.4511 11.5199 15.9711 11.8655 15.6255C12.2111 15.2799 12.7007 15.1071 13.3343 15.1071C13.7567 15.0495 14.3615 15.0207 15.1487 15.0207ZM17.6543 20.4063C17.6543 20.2143 17.5871 20.0511 17.4527 19.9167C17.3183 19.7631 17.1551 19.6863 16.9631 19.6863C16.7711 19.6863 16.5983 19.7631 16.4447 19.9167C16.2911 20.0703 16.2143 20.2335 16.2143 20.4063C16.2143 20.5791 16.2815 20.7327 16.4159 20.8671C16.5695 21.0015 16.7423 21.0879 16.9343 21.1263C17.1455 21.1263 17.3183 21.0591 17.4527 20.9247C17.5871 20.7711 17.6543 20.5983 17.6543 20.4063Z" fill="#519ABA"/>
</svg>
