<svg width="30" height="30" viewBox="0 0 30 30" fill="none" xmlns="http://www.w3.org/2000/svg">
<g id="typescript.svg">
<path id="Vector" d="M14.4286 11.1377H11.3471V20.296H9.10065V11.1377H6.04785V9.49607H14.3134V11.1377H14.4286ZM21.3406 17.5312C21.3406 17.32 21.3022 17.1376 21.2254 16.984C21.1486 16.8304 21.043 16.6768 20.9086 16.5232C20.7934 16.4272 20.6206 16.3216 20.3902 16.2064C20.2366 16.1488 19.9678 16.0432 19.5838 15.8896L19.3534 15.8032C18.1054 15.4384 17.1166 14.9872 16.387 14.4496C15.7342 13.8928 15.4078 13.2016 15.4078 12.3761C15.4078 11.4737 15.8014 10.7537 16.5886 10.2161C17.299 9.67847 18.2398 9.40967 19.411 9.40967C20.6014 9.40967 21.5806 9.74567 22.3486 10.4177C23.059 11.0513 23.4142 11.8289 23.4142 12.7504H21.3406C21.3406 12.4817 21.2926 12.2513 21.1966 12.0593C21.1198 11.8673 20.9854 11.6753 20.7934 11.4833C20.4094 11.1953 19.9294 11.0513 19.3534 11.0513C18.7774 11.0513 18.3358 11.1665 18.0286 11.3969C17.7214 11.6273 17.5678 11.9537 17.5678 12.3761C17.5678 12.7216 17.7502 13.0288 18.115 13.2976C18.2686 13.4128 18.499 13.528 18.8062 13.6432C19.0366 13.7392 19.4014 13.864 19.9006 14.0176C21.0718 14.3632 21.9646 14.8048 22.579 15.3424C23.1934 15.8608 23.5006 16.5904 23.5006 17.5312C23.5006 17.992 23.4046 18.4144 23.2126 18.7984C23.0398 19.1632 22.7806 19.4608 22.435 19.6912C21.7054 20.2288 20.7454 20.4976 19.555 20.4976C18.2878 20.4976 17.2606 20.1904 16.4734 19.576C15.571 18.8656 15.1582 18.0016 15.235 16.984H17.395C17.395 17.5984 17.6062 18.0784 18.0286 18.424C18.2014 18.5584 18.4318 18.664 18.7198 18.7408C19.0078 18.8176 19.315 18.856 19.6414 18.856C20.2942 18.856 20.7454 18.7408 20.995 18.5104C21.2254 18.1456 21.3406 17.8192 21.3406 17.5312Z" fill="#519ABA"/>
</g>
</svg>
