<svg width="30" height="29" viewBox="0 0 30 29" fill="none" xmlns="http://www.w3.org/2000/svg">
<g id="yaml.svg">
<path id="Vector" d="M15.7535 17.3863C15.5999 17.3863 15.3983 17.4055 15.1487 17.4439C14.9759 17.4631 14.8511 17.4727 14.7743 17.4727H13.1615C13.2767 16.1863 13.4399 14.2663 13.6511 11.7126C13.8623 9.15903 14.0255 7.23903 14.1407 5.95263H15.2063C16.0319 5.91423 16.6367 5.91423 17.0207 5.95263C17.1551 5.95263 17.2895 6.03903 17.4239 6.21183C17.5583 6.38463 17.6063 6.53823 17.5679 6.67263C17.4335 7.63263 17.1935 9.08223 16.8479 11.0214L16.4735 12.9799C16.3775 13.7863 16.1855 15.0247 15.8975 16.6951L15.7535 17.3863ZM16.1279 20.9863C16.1663 21.4855 16.0031 21.9367 15.6383 22.3399C15.2735 22.7239 14.8031 22.9351 14.2271 22.9735C13.6511 23.0119 13.1231 22.8775 12.6431 22.5703C12.1823 22.2439 11.9327 21.8407 11.8943 21.3607C11.8559 20.8039 12.0191 20.3431 12.3839 19.9783C12.7487 19.6135 13.2479 19.4119 13.8815 19.3735C14.5151 19.3351 15.0335 19.4599 15.4367 19.7479C15.8591 20.0359 16.0895 20.4487 16.1279 20.9863Z" fill="#A074C4"/>
</g>
</svg>
