<svg width="17" height="16" viewBox="0 0 17 16" fill="none" xmlns="http://www.w3.org/2000/svg">
<g id="search.svg" clip-path="url(#clip0_1_598)">
<path id="Vector" d="M11.3 0C8.19999 0 5.79999 2.5 5.79999 5.5C5.79999 6.7 6.19999 7.8 6.79999 8.7L1.09999 14.4C0.699988 14.8 0.699988 15.3 1.09999 15.7C1.19999 15.9 1.49999 16 1.69999 16C1.89999 16 2.19999 15.9 2.29999 15.7L8.09999 10C8.99999 10.6 10.1 11 11.3 11C14.3 11 16.8 8.5 16.8 5.5C16.8 2.5 14.3 0 11.3 0ZM11.3 9.2C9.29999 9.2 7.59999 7.5 7.59999 5.5C7.59999 3.5 9.29999 1.8 11.3 1.8C13.3 1.8 15 3.5 15 5.5C15 7.6 13.3 9.2 11.3 9.2Z" fill="white"/>
</g>
<defs>
<clipPath id="clip0_1_598">
<rect width="16" height="16" fill="white" transform="translate(0.799988)"/>
</clipPath>
</defs>
</svg>
