<svg width="55" height="14" viewBox="0 0 55 14" fill="none" xmlns="http://www.w3.org/2000/svg">
<g id="firststart-sidebar-sprite.svg" clip-path="url(#clip0_1_688)">
<g id="Group">
<path id="Vector" d="M25.2175 12.7731V9.1283H26.4143V13.9699H15.4799V9.1283H16.7311V12.7731H25.2175Z" fill="#808285"/>
<path id="Vector_2" d="M17.9279 11.5219H24.0207V10.3251H17.9279V11.5219ZM23.3679 0.369873L22.3887 1.07707L26.0335 5.91867L27.0127 5.21147L23.3679 0.369873ZM20.3759 3.25307L25.0543 7.11547L25.8159 6.19067L21.1375 2.32827L20.3759 3.25307ZM18.8527 5.91867L24.3471 8.47547L24.8367 7.38747L19.3423 4.83067L18.8527 5.91867ZM18.0367 8.80187L23.9663 10.0531L24.2383 8.85627L18.3087 7.60507L18.0367 8.80187Z" fill="#808285"/>
</g>
<g id="Group_2">
<path id="Vector_3" d="M41.6462 3.36187C41.1566 3.57947 40.6126 3.74267 40.0686 3.79707C40.667 3.47067 41.1022 2.92667 41.3198 2.27387C40.7758 2.60027 40.1774 2.81787 39.5246 2.92667C39.035 2.38267 38.2734 2.05627 37.5118 2.05627C35.9886 2.05627 34.7374 3.30747 34.7374 4.83067C34.7374 5.04827 34.7374 5.26587 34.7918 5.48347C32.4526 5.37467 30.4398 4.23227 29.0254 2.54587C28.7534 2.98107 28.5902 3.47067 28.5902 3.96027C28.5902 4.93947 29.0798 5.75547 29.8414 6.29947C29.4062 6.29947 28.971 6.13627 28.5902 5.97307C28.5902 5.97307 28.5902 5.97307 28.5902 6.02747C28.5902 7.38747 29.5694 8.52987 30.8206 8.74747C30.603 8.80187 30.331 8.85627 30.059 8.85627C29.8958 8.85627 29.6782 8.85627 29.515 8.80187C29.8958 9.88987 30.875 10.7059 32.1262 10.7603C31.147 11.5219 29.9502 11.9571 28.6446 11.9571C28.427 11.9571 28.2094 11.9571 27.9918 11.9027C29.243 12.7187 30.7118 13.1539 32.2894 13.1539C37.403 13.1539 40.2318 8.91067 40.2318 5.21147C40.2318 5.10267 40.2318 4.99387 40.2318 4.83067C40.7758 4.44987 41.2654 3.96027 41.6462 3.36187Z" fill="#808285"/>
</g>
<g id="Group_3">
<path id="Vector_4" d="M7.75508 0.641846C4.00148 0.641846 0.955078 3.63385 0.955078 7.33305C0.955078 10.2706 2.91348 12.773 5.57908 13.6978C5.90548 13.7522 6.06868 13.5346 6.06868 13.3714C6.06868 13.2082 6.06868 12.6642 6.06868 12.1202C4.16468 12.501 3.78388 11.3042 3.78388 11.3042C3.45748 10.5426 3.02228 10.325 3.02228 10.325C2.42388 9.88985 3.07668 9.94425 3.07668 9.94425C3.78388 9.99865 4.11028 10.6514 4.11028 10.6514C4.70868 11.685 5.68788 11.3586 6.06868 11.1954C6.12308 10.7602 6.28628 10.4882 6.50388 10.325C4.98068 10.1618 3.40308 9.56345 3.40308 7.00665C3.40308 6.29945 3.67508 5.70105 4.11028 5.21145C4.05588 4.99385 3.83828 4.34105 4.16468 3.41625C4.16468 3.41625 4.76308 3.25305 6.01428 4.12345C6.55828 3.96025 7.15668 3.90585 7.70068 3.90585C8.29908 3.90585 8.84308 3.96025 9.38708 4.12345C10.6927 3.25305 11.2367 3.41625 11.2367 3.41625C11.6175 4.34105 11.3999 4.99385 11.2911 5.21145C11.7263 5.70105 11.9983 6.29945 11.9983 7.00665C11.9983 9.56345 10.4207 10.1618 8.89748 10.325C9.11508 10.5426 9.33268 10.9234 9.33268 11.5762C9.33268 12.4466 9.33268 13.2082 9.33268 13.4258C9.33268 13.589 9.44148 13.8066 9.82228 13.7522C12.5423 12.8818 14.4463 10.3794 14.4463 7.38745C14.5551 3.63385 11.5087 0.641846 7.75508 0.641846Z" fill="#808285"/>
</g>
<path id="Vector_5" d="M49.4255 0.369873C52.6895 0.369873 55.3551 2.00187 55.3551 4.06907C55.3551 5.37467 54.2671 6.51707 52.6895 7.16987C53.0703 7.87707 53.6143 8.58427 54.2671 9.50907C53.0159 9.07387 51.1119 8.63867 50.0239 7.76827L49.4799 7.82267C46.2159 7.82267 43.5503 6.19067 43.5503 4.12347C43.4415 2.00187 46.1071 0.369873 49.4255 0.369873ZM50.8399 9.12827C50.8399 10.8691 48.7727 12.2291 46.3247 12.2291H45.9439C45.0191 13.0995 43.7679 13.9699 42.2991 13.9699C42.6255 13.3171 43.3327 12.6643 43.7679 11.7395C42.5167 11.1955 41.7007 10.2163 41.7007 9.12827C41.7007 8.04027 42.5167 7.11547 43.7679 6.51707C44.8559 7.55067 46.7055 8.25787 48.8271 8.25787L49.3711 8.20347C49.8063 8.52987 50.2415 8.74747 50.8399 9.01947V9.12827Z" fill="#808285"/>
</g>
<defs>
<clipPath id="clip0_1_688">
<rect width="68" height="13.6" fill="white" transform="translate(0.955078 0.369873)"/>
</clipPath>
</defs>
</svg>
